<?xml version="1.0" encoding="UTF-8" standalone="no" ?>
<!DOCTYPE svg PUBLIC "-//W3C//DTD SVG 1.1//EN" "http://www.w3.org/Graphics/SVG/1.1/DTD/svg11.dtd">
<svg xmlns="http://www.w3.org/2000/svg" xmlns:xlink="http://www.w3.org/1999/xlink" version="1.1" width="1080" height="1080" viewBox="0 0 1080 1080" xml:space="preserve">
<desc>Created with Fabric.js 5.2.4</desc>
<defs>
</defs>
<g transform="matrix(1 0 0 1 540 540)" id="02ffa5a7-4cb2-4c0c-b29b-17fad93d0c59"  >
<rect style="stroke: none; stroke-width: 1; stroke-dasharray: none; stroke-linecap: butt; stroke-dashoffset: 0; stroke-linejoin: miter; stroke-miterlimit: 4; fill: rgb(255,255,255); fill-rule: nonzero; opacity: 1; visibility: hidden;" vector-effect="non-scaling-stroke"  x="-540" y="-540" rx="0" ry="0" width="1080" height="1080" />
</g>
<g transform="matrix(1 0 0 1 540 540)" id="5612598f-9a55-4b5a-867c-e76f217adba3"  >
</g>
<g transform="matrix(2.11 0 0 2.11 540 540)"  >
<g style=""   >
		<g transform="matrix(0.99 -0.1 0.1 0.99 5.6 11.45)" clip-path="url(#CLIPPATH_4)"  >
<clipPath id="CLIPPATH_4" >
	<rect transform="matrix(0.99 0.1 -0.1 0.99 -4.4 -11.96)" id="__lottie_element_2" x="-256" y="-256" rx="0" ry="0" width="512" height="512" />
</clipPath>
<path style="stroke: rgb(0,0,0); stroke-opacity: 0.25; stroke-width: 1; stroke-dasharray: none; stroke-linecap: butt; stroke-dashoffset: 0; stroke-linejoin: miter; stroke-miterlimit: 3; fill: rgb(0,0,0); fill-opacity: 0; fill-rule: nonzero; opacity: 0.75;" vector-effect="non-scaling-stroke"  transform=" translate(-2.21, -12.17)" d="M -168.24737548828125 25.370407104492188 C -161.8981170654297 130.06509399414062 -15.270743370056152 217.0277099609375 60.35114669799805 175.48800659179688 C 128.55572509765625 138.01588439941406 154.8516387939453 94.49396514892578 170.42071533203125 35.836483001708984 C 185.986328125 -22.805768966674805 125.44331359863281 -148.16358947753906 52.46766662597656 -160.0169677734375 C -46.85803985595703 -176.0303955078125 -174.4501953125 -78.37995147705078 -168.24737548828125 25.370407104492188 z" stroke-linecap="round" />
</g>
		<g transform="matrix(0.99 -0.1 0.1 0.99 5.6 11.45)" clip-path="url(#CLIPPATH_5)"  >
<clipPath id="CLIPPATH_5" >
	<rect transform="matrix(0.99 0.1 -0.1 0.99 -4.4 -11.96)" id="__lottie_element_2" x="-256" y="-256" rx="0" ry="0" width="512" height="512" />
</clipPath>
<path style="stroke: rgb(0,0,0); stroke-opacity: 0.25; stroke-width: 1; stroke-dasharray: none; stroke-linecap: butt; stroke-dashoffset: 0; stroke-linejoin: miter; stroke-miterlimit: 3; fill: rgb(0,0,0); fill-opacity: 0; fill-rule: nonzero; opacity: 0.75;" vector-effect="non-scaling-stroke"  transform=" translate(-2.21, -12.17)" d="M -168.24737548828125 25.370407104492188 C -161.8981170654297 130.06509399414062 -15.270743370056152 217.0277099609375 60.35114669799805 175.48800659179688 C 128.55572509765625 138.01588439941406 154.8516387939453 94.49396514892578 170.42071533203125 35.836483001708984 C 185.986328125 -22.805768966674805 125.44331359863281 -148.16358947753906 52.46766662597656 -160.0169677734375 C -46.85803985595703 -176.0303955078125 -174.4501953125 -78.37995147705078 -168.24737548828125 25.370407104492188 z" stroke-linecap="round" />
</g>
		<g transform="matrix(0.99 0.1 -0.1 0.99 -9.58 13.28)" clip-path="url(#CLIPPATH_6)"  >
<clipPath id="CLIPPATH_6" >
	<rect transform="matrix(0.99 -0.1 0.1 0.99 8.17 -14.18)" id="__lottie_element_2" x="-256" y="-256" rx="0" ry="0" width="512" height="512" />
</clipPath>
<path style="stroke: rgb(0,0,0); stroke-opacity: 0.25; stroke-width: 1; stroke-dasharray: none; stroke-linecap: round; stroke-dashoffset: 0; stroke-linejoin: round; stroke-miterlimit: 4; fill: rgb(0,0,0); fill-opacity: 0; fill-rule: nonzero; opacity: 1;" vector-effect="non-scaling-stroke"  transform=" translate(10.02, -12.99)" d="M -179.35678100585938 -11.857420921325684 C -177.78237915039062 68.2308578491211 -1.4014962911605835 229.1775665283203 74.36006927490234 187.86033630371094 C 142.71644592285156 150.5827178955078 168.7313690185547 65.02574920654297 156.3525848388672 -6.783137798309326 C 143.97003173828125 -78.57550048828125 70.06952667236328 -164.0268096923828 -14.565648078918457 -168.3763885498047 C -99.17940521240234 -172.71951293945312 -180.86822509765625 -98.6163330078125 -179.35678100585938 -11.857420921325684 z" stroke-linecap="round" />
</g>
</g>
</g>
<g transform="matrix(NaN NaN NaN NaN 0 0)"  >
<g style=""   >
</g>
</g>
</svg>