<?xml version="1.0" standalone="no"?>
<!DOCTYPE svg PUBLIC "-//W3C//DTD SVG 20010904//EN"
 "http://www.w3.org/TR/2001/REC-SVG-20010904/DTD/svg10.dtd">
<svg version="1.0" xmlns="http://www.w3.org/2000/svg"
 width="200.000000pt" height="200.000000pt" viewBox="0 0 200.000000 200.000000"
 preserveAspectRatio="xMidYMid meet">

<g transform="translate(0.000000,200.000000) scale(0.100000,-0.100000)"
fill="#000000" stroke="none">
<path d="M947 1166 c-20 -8 -44 -20 -53 -27 -9 -7 -31 -14 -50 -15 -41 -1 -64
-19 -64 -50 0 -16 8 -27 23 -33 19 -8 24 -17 25 -51 6 -150 198 -222 303 -114
18 19 28 34 22 34 -7 0 -15 -5 -19 -11 -11 -18 -87 -49 -122 -49 -77 0 -150
69 -155 146 l-2 39 43 3 c28 2 53 -3 68 -13 13 -8 24 -12 24 -8 0 15 -45 71
-69 86 l-25 15 35 22 c45 28 122 24 168 -10 l33 -23 -38 -13 c-35 -12 -84 -57
-84 -77 0 -4 14 0 31 9 23 11 44 14 79 9 44 -6 49 -5 55 15 13 41 -117 133
-182 130 -4 -1 -25 -7 -46 -14z"/>
</g>
</svg>
